M48
;Layer_Color=9474304
;FILE_FORMAT=2:5
INCH,TZ
;TYPE=PLATED
T01F00S00C0.02756
T02F00S00C0.03898
T03F00S00C0.04134
T04F00S00C0.04528
T05F00S00C0.05118
T06F00S00C0.12598
T07F00S00C0.12795
;TYPE=NON_PLATED
T08F00S00C0.09449
T09F00S00C0.13386
%
T01
X177559Y70866
X88976Y77953
X65748
X11417Y70866
X5906Y261811
X190945Y248031
T02
X97441Y20866
X115157
X136811
X154527
T03
X142874Y139370
Y148386
Y157402
Y166417
Y175433
X152874Y170925
Y161909
Y152894
Y143878
Y134862
X162874Y139370
Y148386
Y157402
Y166417
Y175433
T04
X29449Y124764
Y135669
Y146575
Y157480
Y168386
Y179291
Y190197
X39449Y195650
Y184744
Y173839
Y162933
Y152027
Y141122
Y130217
Y119311
T05
X92500Y30669
X120098
X131870
X159469
T06
X152874Y107185
Y205571
T07
X34449Y91890
Y223071
T08
X45276Y22047
X76772
Y55512
X45276
T09
X17717Y17717
X179134
X17717Y297244
X179134
M30
