G04*
G04 #@! TF.GenerationSoftware,Altium Limited,Altium Designer,24.4.1 (13)*
G04*
G04 Layer_Color=65535*
%FSLAX25Y25*%
%MOIN*%
G70*
G04*
G04 #@! TF.SameCoordinates,DD3FF33E-3B50-40DC-AE4A-396B39D6A24E*
G04*
G04*
G04 #@! TF.FilePolarity,Positive*
G04*
G01*
G75*
%ADD10C,0.01181*%
%ADD11C,0.00984*%
%ADD12C,0.00394*%
%ADD13C,0.00787*%
%ADD14C,0.00013*%
%ADD15C,0.01000*%
%ADD16C,0.00500*%
G36*
X133581Y303545D02*
X133950Y303392D01*
X134266Y303150D01*
X134267Y303149D01*
X134267Y303149D01*
X134510Y302833D01*
X134663Y302464D01*
X134698Y302198D01*
X134714Y302068D01*
Y301935D01*
Y281098D01*
X134704Y280969D01*
X134704Y280969D01*
X134749Y280739D01*
X134880Y280544D01*
X134881Y280543D01*
X135074Y280414D01*
X135304Y280368D01*
X135307Y280369D01*
X135437Y280379D01*
X141344D01*
X141347Y280377D01*
Y280377D01*
X141347Y280377D01*
X141565Y280333D01*
X141752Y280208D01*
X141876Y280022D01*
X141896Y279926D01*
X141918Y279801D01*
X141919Y279795D01*
X141898Y279676D01*
X141877Y279569D01*
X141755Y279388D01*
X141652Y279315D01*
X141565Y279257D01*
X141347Y279214D01*
X141347D01*
X141344Y279211D01*
X135090D01*
Y279211D01*
X134696Y279263D01*
X134327Y279416D01*
X134009Y279660D01*
X133766Y279977D01*
X133613Y280347D01*
X133578Y280613D01*
X133561Y280743D01*
X133561Y280877D01*
Y301853D01*
X133572Y301853D01*
X133526Y302084D01*
X133395Y302280D01*
X133199Y302411D01*
X132971Y302456D01*
X132971Y302446D01*
X132971Y302446D01*
X115722D01*
X115722Y302446D01*
X115722Y302456D01*
X115494Y302411D01*
X115298Y302280D01*
X115167Y302084D01*
X115121Y301853D01*
X115121Y301853D01*
X115132Y301724D01*
Y280757D01*
X115132Y280757D01*
X115131Y280757D01*
X115133Y280743D01*
X115081Y280347D01*
X114927Y279977D01*
X114690Y279668D01*
X114590Y279587D01*
X114367Y279416D01*
X113997Y279263D01*
X113606Y279212D01*
X113606Y279211D01*
X98725D01*
Y279213D01*
X98505Y279257D01*
X98422Y279312D01*
X98317Y279382D01*
X98193Y279569D01*
X98149Y279790D01*
X98193Y280010D01*
X98247Y280093D01*
X98317Y280197D01*
X98505Y280322D01*
X98725Y280366D01*
Y280368D01*
X113256D01*
X113386Y280358D01*
X113389Y280357D01*
X113619Y280403D01*
X113814Y280533D01*
X113944Y280728D01*
X113990Y280958D01*
X113979D01*
Y301935D01*
X113979Y302068D01*
X113995Y302195D01*
X114031Y302464D01*
X114183Y302833D01*
X114426Y303149D01*
X114427Y303149D01*
X114427Y303150D01*
X114743Y303392D01*
X115112Y303545D01*
X115507Y303597D01*
X115508Y303597D01*
X133185D01*
X133186Y303597D01*
X133581Y303545D01*
D02*
G37*
G36*
X92443Y303597D02*
X108894D01*
X108895Y303586D01*
X108941Y303592D01*
X109131Y303567D01*
X109308Y303494D01*
X109460Y303377D01*
X109576Y303225D01*
X109650Y303048D01*
X109675Y302859D01*
X109650Y302669D01*
X109576Y302492D01*
X109498Y302390D01*
X109507Y302382D01*
X109507Y302382D01*
X92805Y279776D01*
X92787Y279774D01*
X92787D01*
X92667Y279617D01*
X92379Y279397D01*
X92045Y279258D01*
X91746Y279219D01*
X91745D01*
X91738Y279211D01*
X74679D01*
Y279211D01*
X74285Y279263D01*
X73916Y279416D01*
X73598Y279660D01*
X73355Y279977D01*
X73202Y280347D01*
X73167Y280613D01*
X73150Y280743D01*
X73150D01*
Y280877D01*
Y302905D01*
X73152D01*
X73196Y303125D01*
X73321Y303312D01*
X73425Y303382D01*
X73508Y303437D01*
X73599Y303455D01*
X73728Y303481D01*
Y303481D01*
X73946Y303437D01*
X74133Y303312D01*
X74258Y303125D01*
X74302Y302905D01*
X74304Y302905D01*
Y281101D01*
X74293Y280972D01*
Y280972D01*
X74339Y280742D01*
X74469Y280547D01*
X74470Y280546D01*
X74470D01*
X74664Y280417D01*
X74894Y280371D01*
X74897Y280371D01*
X75026Y280382D01*
X91746D01*
X91748Y280382D01*
X91791Y280391D01*
X91875Y280447D01*
X91875Y280447D01*
X91875Y280449D01*
X107845Y302091D01*
X107928Y302195D01*
X107968Y302293D01*
X107969Y302294D01*
X107918Y302416D01*
X107795Y302467D01*
X107794Y302467D01*
X107792Y302466D01*
X107662Y302454D01*
X92661D01*
Y302466D01*
X92430Y302419D01*
X92234Y302289D01*
X92103Y302093D01*
X92057Y301862D01*
X92068Y301851D01*
Y286838D01*
X92068Y286838D01*
X92066Y286838D01*
X92066Y286836D01*
X92022Y286616D01*
X91898Y286430D01*
X91712Y286306D01*
X91492Y286262D01*
Y286262D01*
X91366Y286287D01*
X91272Y286306D01*
X91085Y286431D01*
X91015Y286536D01*
X90960Y286618D01*
X90916Y286838D01*
X90914D01*
Y302068D01*
X90914Y302068D01*
X90966Y302464D01*
X91119Y302833D01*
X91361Y303149D01*
X91362Y303149D01*
X91362Y303150D01*
X91679Y303392D01*
X92047Y303545D01*
X92443Y303597D01*
X92443Y303597D01*
D02*
G37*
G36*
X94468Y272100D02*
X95269Y271964D01*
X95862Y271794D01*
X95872Y271798D01*
X96433Y271566D01*
X96964Y271241D01*
X97357Y270905D01*
X97451Y270812D01*
X97768Y270441D01*
X98080Y269932D01*
X98308Y269380D01*
X98339Y269254D01*
X98335Y269253D01*
X98445Y268872D01*
X98580Y268078D01*
X98625Y267274D01*
X98620Y267190D01*
X98626Y267190D01*
X98626Y267190D01*
Y258503D01*
X97246D01*
Y259942D01*
Y260065D01*
X97246Y260213D01*
X97244Y260218D01*
X97226Y260228D01*
X97112Y260125D01*
X97021Y260042D01*
X96970Y259996D01*
X96231Y259448D01*
X95834Y259210D01*
X95834D01*
X95721Y259139D01*
X95203Y258853D01*
X94640Y258620D01*
X94514Y258574D01*
X94391Y258533D01*
X94003Y258401D01*
X93360Y258273D01*
X93227Y258258D01*
X92882Y258207D01*
X92063Y258167D01*
X91930Y258164D01*
X91798Y258168D01*
X91240Y258205D01*
X90600Y258332D01*
X90292Y258437D01*
X90165Y258480D01*
X89766Y258645D01*
X89243Y258966D01*
X88982Y259188D01*
X88982Y259188D01*
X88819Y259327D01*
X88462Y259746D01*
X88174Y260216D01*
X88110Y260368D01*
X88110D01*
X88059Y260491D01*
X87958Y260736D01*
X87826Y261286D01*
X87788Y261764D01*
X87787Y261898D01*
X87787D01*
X87784Y261940D01*
X87781Y262031D01*
X87828Y262628D01*
X87975Y263239D01*
X88215Y263819D01*
X88543Y264354D01*
X88951Y264832D01*
X89429Y265240D01*
X89749Y265436D01*
X89857Y265509D01*
X89976Y265588D01*
X90488Y265841D01*
X90611Y265892D01*
X90974Y266042D01*
X91102Y266082D01*
X91422Y266197D01*
X91631Y266249D01*
Y266249D01*
X91631Y266250D01*
X92070Y266359D01*
X92200Y266387D01*
Y266387D01*
X92631Y266482D01*
X92809Y266505D01*
X92809Y266506D01*
X93325Y266574D01*
X93457Y266590D01*
X93590Y266605D01*
X94011Y266655D01*
X94012Y266655D01*
X94144Y266661D01*
X94278Y266670D01*
X94738Y266686D01*
X94872Y266691D01*
X95006Y266695D01*
X95629Y266716D01*
X95639Y266716D01*
Y266717D01*
X97231Y266717D01*
X97231D01*
X97231Y266717D01*
X97236Y266719D01*
X97236Y266719D01*
X97245Y266724D01*
X97249Y266797D01*
Y266797D01*
X97246Y266844D01*
X97205Y267804D01*
X97152Y268206D01*
X97137Y268339D01*
X97129Y268439D01*
X97121Y268472D01*
X97023Y268881D01*
X96849Y269301D01*
X96651Y269624D01*
X96569Y269724D01*
X96409Y269919D01*
X96031Y270229D01*
X95656Y270430D01*
X95600Y270460D01*
X95531Y270480D01*
X95531Y270480D01*
X95529Y270475D01*
X95116Y270616D01*
X94420Y270754D01*
X93713Y270800D01*
X93633Y270795D01*
X93500Y270796D01*
X93482Y270797D01*
X93368Y270792D01*
X92783Y270763D01*
X92650Y270754D01*
X92452Y270743D01*
Y270743D01*
X92422Y270740D01*
X92322Y270723D01*
X92146Y270693D01*
X92140Y270697D01*
X91972Y270663D01*
X91850Y270639D01*
X91850Y270639D01*
X91849Y270639D01*
X91725Y270614D01*
X91572Y270584D01*
X91566Y270574D01*
X91443Y270544D01*
X91339Y270519D01*
X91316Y270510D01*
X91316Y270508D01*
X91083Y270411D01*
Y270411D01*
X90861Y270320D01*
X90865Y270313D01*
X90664Y270205D01*
Y270205D01*
X90584Y270162D01*
X90552Y270136D01*
X90222Y269865D01*
X89925Y269503D01*
X89705Y269091D01*
X89569Y268643D01*
X89548Y268432D01*
X88299D01*
X88227Y268509D01*
X88212Y268566D01*
X88301Y269012D01*
X88327Y269138D01*
X88359Y269268D01*
X88426Y269465D01*
D01*
Y269465D01*
Y269465D01*
X88420Y269479D01*
X88491Y269651D01*
X88542Y269774D01*
X88542D01*
X88642Y270014D01*
X88928Y270480D01*
X89265Y270875D01*
X89579Y271144D01*
X89681Y271226D01*
X89790Y271293D01*
X90122Y271497D01*
X90245Y271549D01*
X90435Y271642D01*
X90544Y271684D01*
X90561Y271689D01*
X90685Y271732D01*
X90904Y271806D01*
X90904Y271807D01*
X91116Y271879D01*
X91271Y271909D01*
X91400Y271943D01*
X91664Y271988D01*
Y271988D01*
X91664Y271988D01*
X91949Y272036D01*
X92082Y272054D01*
X92342Y272092D01*
X92525Y272101D01*
X92525Y272102D01*
X92860Y272118D01*
X92993Y272124D01*
X93352Y272140D01*
X93486Y272136D01*
X93657Y272146D01*
X94468Y272100D01*
D02*
G37*
G36*
X85786Y272121D02*
X85799Y270858D01*
X85700Y270767D01*
X85525Y270785D01*
X85406Y270796D01*
X85391Y270795D01*
X85261Y270785D01*
X85018D01*
X84887Y270793D01*
X84882Y270794D01*
X84757Y270784D01*
X84436Y270758D01*
X84001Y270654D01*
X83738Y270545D01*
X83736Y270549D01*
X83236Y270303D01*
X82783Y270000D01*
X82696Y269941D01*
X82675Y269923D01*
X82582Y269853D01*
X82031Y269360D01*
X81834Y269140D01*
X81745Y269041D01*
X81745Y269040D01*
X81745Y269040D01*
X81656Y268940D01*
X81485Y268749D01*
X81062Y268153D01*
X81046Y268129D01*
X80995Y268038D01*
X81000Y268035D01*
X80998Y268032D01*
Y258503D01*
X79619D01*
Y271802D01*
X80998D01*
Y270265D01*
X80998Y270141D01*
Y269980D01*
X80997Y269979D01*
X80998Y269975D01*
Y269972D01*
X81001Y269967D01*
X81006Y269965D01*
X81006Y269965D01*
X81018Y269962D01*
X81132Y270090D01*
X81215Y270182D01*
X81445Y270440D01*
X82045Y270976D01*
X82184Y271074D01*
X82291Y271155D01*
X82814Y271505D01*
X83297Y271743D01*
X83297Y271743D01*
X83724Y271919D01*
X84334Y272066D01*
X84340Y272062D01*
X84492Y272093D01*
X85255Y272143D01*
X85255D01*
X85258Y272145D01*
X85514D01*
X85786Y272121D01*
D02*
G37*
G36*
X153916Y272098D02*
X154520Y271953D01*
X155094Y271715D01*
X155272Y271606D01*
X155386Y271536D01*
X155499Y271464D01*
X155870Y271148D01*
X156214Y270744D01*
X156492Y270291D01*
X156679Y269840D01*
X156683Y269829D01*
X156696Y269798D01*
X156717Y269708D01*
X156747Y269702D01*
X156895Y269923D01*
X157430Y270533D01*
X157843Y270895D01*
X157842Y270896D01*
X157983Y271020D01*
X158602Y271433D01*
X159019Y271639D01*
X159018Y271640D01*
X159196Y271727D01*
X159840Y271946D01*
X160219Y272022D01*
X160219Y272023D01*
X160689Y272102D01*
X161260Y272134D01*
X161392Y272142D01*
Y272142D01*
X161394Y272142D01*
X161525Y272141D01*
X162128Y272093D01*
X162606Y271978D01*
X162730Y271948D01*
X162851Y271900D01*
X163168Y271768D01*
X163284Y271701D01*
X163284D01*
X163573Y271523D01*
X163934Y271215D01*
X164242Y270855D01*
X164446Y270521D01*
X164504Y270400D01*
X164654Y270096D01*
X164764Y269773D01*
X164764Y269773D01*
X164764Y269773D01*
X164863Y269480D01*
X164923Y269180D01*
X164949Y269049D01*
X164972Y268918D01*
X165049Y268467D01*
X165063Y268228D01*
X165073Y268095D01*
X165110Y267338D01*
X165108Y267309D01*
X165109Y267309D01*
X165126Y258598D01*
X165031Y258503D01*
X163747D01*
Y267060D01*
X163757Y267189D01*
X163758Y267210D01*
X163753Y267321D01*
X163724Y267910D01*
X163715Y268043D01*
X163704Y268240D01*
X163681Y268368D01*
X163673Y268413D01*
X163654Y268546D01*
X163654D01*
X163597Y268831D01*
X163571Y268962D01*
X163555Y269044D01*
X163537Y269097D01*
X163505Y269216D01*
X163503Y269226D01*
X163502Y269226D01*
X163500Y269237D01*
X163457Y269340D01*
X163456Y269340D01*
X163365Y269561D01*
X163368Y269563D01*
X163262Y269761D01*
X163262D01*
X163262Y269761D01*
X163189Y269898D01*
X163152Y269943D01*
X163152Y269943D01*
X163151Y269942D01*
X162974Y270157D01*
X162811Y270291D01*
X162808Y270294D01*
X162804Y270297D01*
X162715Y270370D01*
X162708Y270376D01*
Y270376D01*
X162635Y270415D01*
X162520Y270476D01*
X162520Y270476D01*
X162518Y270477D01*
X162518D01*
X162354Y270565D01*
X162317Y270577D01*
X162219Y270607D01*
X162093Y270645D01*
X162094Y270648D01*
X161855Y270706D01*
X161855Y270706D01*
X161732Y270736D01*
X161710Y270741D01*
X161600Y270750D01*
Y270750D01*
X161327Y270772D01*
X161193Y270780D01*
X161041Y270790D01*
X161037Y270789D01*
Y270789D01*
X160911Y270778D01*
X160468Y270743D01*
X159865Y270598D01*
X159293Y270361D01*
X158873Y270104D01*
X158871Y270107D01*
X158219Y269624D01*
X157582Y269047D01*
X157005Y268410D01*
X156838Y268184D01*
X156838Y268183D01*
X156837Y268179D01*
Y258497D01*
X155457D01*
Y267057D01*
X155462Y267189D01*
X155468Y267307D01*
X155467Y267322D01*
X155425Y268185D01*
X155330Y268822D01*
X155333Y268823D01*
X155323Y268926D01*
X155314Y268954D01*
X155165Y269447D01*
X154960Y269830D01*
X154908Y269927D01*
X154893Y269946D01*
X154893Y269946D01*
X154886Y269942D01*
X154704Y270163D01*
X154425Y270393D01*
X154168Y270530D01*
X154106Y270563D01*
X154045Y270581D01*
X153922Y270631D01*
X153917Y270633D01*
X153408Y270755D01*
X152920Y270794D01*
X152885Y270796D01*
X152787Y270794D01*
Y270794D01*
X152247Y270751D01*
X151692Y270618D01*
X151163Y270399D01*
X150698Y270113D01*
X150702Y270107D01*
X150205Y269738D01*
X149496Y269095D01*
X148854Y268387D01*
X148709Y268191D01*
X148711Y268189D01*
X148709Y268185D01*
Y268185D01*
Y258503D01*
X147329D01*
Y271802D01*
X148709D01*
Y270121D01*
X148709Y269997D01*
Y269833D01*
X148711Y269828D01*
X148711Y269828D01*
X148716Y269826D01*
X148716Y269826D01*
X148716Y269826D01*
X148730Y269821D01*
X148843Y269945D01*
X148843D01*
X148926Y270037D01*
X149148Y270283D01*
X149797Y270870D01*
X150035Y271047D01*
Y271047D01*
X150038Y271062D01*
X150681Y271492D01*
X151191Y271743D01*
X151191Y271743D01*
X151191D01*
X151623Y271922D01*
X152217Y272064D01*
X152227Y272058D01*
D01*
X152227Y272058D01*
X152227Y272058D01*
X152492Y272103D01*
X153033Y272133D01*
X153167Y272137D01*
Y272137D01*
X153296Y272147D01*
X153916Y272098D01*
D02*
G37*
G36*
X123923Y272138D02*
X124056Y272140D01*
X124705Y272104D01*
X125398Y271986D01*
X126073Y271791D01*
X126397Y271657D01*
X126408Y271661D01*
X126970Y271385D01*
X127525Y271014D01*
X128027Y270573D01*
X128277Y270288D01*
X128277Y270288D01*
X128486Y270051D01*
X128938Y269374D01*
X129298Y268644D01*
X129482Y268102D01*
X129482Y268102D01*
X129482D01*
X129489Y268098D01*
X129712Y267206D01*
X129864Y266186D01*
X129914Y265157D01*
X129864Y264127D01*
X129712Y263107D01*
X129489Y262217D01*
X129481Y262212D01*
X129481D01*
X129414Y261980D01*
X129143Y261326D01*
X128801Y260706D01*
X128391Y260129D01*
X128285Y260010D01*
X128282Y260012D01*
X128038Y259733D01*
X127532Y259289D01*
X126972Y258915D01*
X126410Y258638D01*
X126400Y258642D01*
X126159Y258542D01*
X125439Y258334D01*
X124700Y258209D01*
X123952Y258167D01*
X123204Y258209D01*
X122465Y258334D01*
X121745Y258542D01*
X121504Y258642D01*
X121493Y258637D01*
X120924Y258918D01*
X120379Y259282D01*
X119886Y259714D01*
X119633Y260003D01*
X119631Y260001D01*
X119514Y260133D01*
X119100Y260716D01*
X118754Y261342D01*
X118480Y262003D01*
X118422Y262204D01*
X118414Y262209D01*
X118186Y263119D01*
X118035Y264137D01*
X117984Y265165D01*
X118035Y266193D01*
X118186Y267211D01*
X118414Y268122D01*
X118422Y268127D01*
Y268127D01*
X118607Y268672D01*
X118965Y269399D01*
X119416Y270073D01*
X119624Y270311D01*
X119624Y270310D01*
X119861Y270580D01*
X120365Y271022D01*
X120922Y271394D01*
X121501Y271680D01*
X121501Y271680D01*
Y271680D01*
X121502Y271683D01*
X122245Y271935D01*
X123041Y272093D01*
X123789Y272142D01*
X123923Y272138D01*
D02*
G37*
G36*
X61531Y266378D02*
X61531Y266378D01*
X61524Y266378D01*
X61532Y266192D01*
X61481Y264899D01*
X61329Y263614D01*
X61189Y262913D01*
X61191Y262913D01*
X61155Y262704D01*
X60959Y262022D01*
X60688Y261367D01*
X60344Y260746D01*
X60051Y260333D01*
X60051D01*
X60051Y260333D01*
X60052Y260327D01*
X59671Y259893D01*
X59171Y259454D01*
X58619Y259085D01*
X58023Y258791D01*
X57835Y258728D01*
X57834Y258729D01*
X57402Y258575D01*
X56478Y258343D01*
X55536Y258204D01*
X54584Y258157D01*
X54295Y258171D01*
X54294Y258168D01*
X54088Y258158D01*
X53065Y258208D01*
X52052Y258359D01*
X51399Y258522D01*
X51385Y258515D01*
X50644Y258767D01*
X49922Y259122D01*
X49511Y259397D01*
X49402Y259471D01*
X49402D01*
X49294Y259549D01*
X48873Y259919D01*
X48466Y260382D01*
X48143Y260866D01*
X48145Y260875D01*
Y260875D01*
X48145D01*
X47886Y261344D01*
X47585Y262070D01*
X47436Y262587D01*
X47437Y262588D01*
X47437D01*
X47437Y262588D01*
X47292Y263168D01*
X47151Y264114D01*
X47133Y264475D01*
X47121Y264486D01*
X47091Y265048D01*
X47099Y265057D01*
X47099D01*
X47099Y265057D01*
X47087Y265497D01*
X47083Y265631D01*
X47083D01*
X47066Y266195D01*
X47061Y266200D01*
X47060Y266381D01*
Y277301D01*
X48440D01*
Y266436D01*
X48438Y266434D01*
X48438D01*
X48438Y266434D01*
X48424Y266106D01*
X48473Y264978D01*
X48620Y263859D01*
X48825Y262934D01*
X48825Y262934D01*
X48840Y262858D01*
X48858Y262805D01*
X49043Y262260D01*
X49322Y261694D01*
X49673Y261170D01*
X49974Y260826D01*
X49967Y260819D01*
X50434Y260421D01*
X50959Y260099D01*
X51527Y259863D01*
X51686Y259825D01*
X51816Y259793D01*
X52192Y259699D01*
X53188Y259552D01*
X54194Y259502D01*
X54302Y259507D01*
X54401Y259502D01*
X54435Y259504D01*
X55436Y259553D01*
X56462Y259705D01*
X56814Y259793D01*
X56813Y259794D01*
X56814Y259794D01*
X57121Y259868D01*
X57668Y260095D01*
X58174Y260404D01*
X58564Y260737D01*
X58624Y260789D01*
X58660Y260830D01*
X58654Y260836D01*
X58654Y260836D01*
X58654Y260836D01*
X58741Y260934D01*
X58907Y261124D01*
X59265Y261660D01*
X59550Y262237D01*
X59746Y262813D01*
X59757Y262847D01*
X59776Y262943D01*
X59775Y262943D01*
X59968Y263814D01*
X60117Y264949D01*
X60167Y266093D01*
X60153Y266434D01*
Y266434D01*
X60151Y266436D01*
Y277301D01*
X61531D01*
Y266378D01*
D02*
G37*
G36*
X134658Y270120D02*
X134659Y269997D01*
Y269997D01*
X134659Y269833D01*
X134661Y269828D01*
X134666Y269826D01*
X134666Y269826D01*
X134680Y269820D01*
X134792Y269946D01*
X134875Y270038D01*
X135080Y270268D01*
X135784Y270897D01*
X135964Y271024D01*
X135965Y271030D01*
X136526Y271405D01*
X137072Y271674D01*
X137191Y271730D01*
X137315Y271775D01*
X137830Y271950D01*
X138202Y272024D01*
X138333Y272046D01*
X138661Y272102D01*
X139227Y272134D01*
X139359Y272140D01*
Y272140D01*
X139379Y272141D01*
X139492Y272140D01*
X140118Y272099D01*
X140716Y271980D01*
X140845Y271943D01*
X140973Y271911D01*
X141465Y271707D01*
Y271707D01*
X141465Y271707D01*
X141467Y271707D01*
X141907Y271437D01*
X142306Y271097D01*
X142646Y270698D01*
X142920Y270252D01*
X143065Y269900D01*
X143109Y269773D01*
X143257Y269336D01*
X143314Y269049D01*
X143342Y268918D01*
X143434Y268374D01*
X143442Y268228D01*
X143442D01*
X143453Y268095D01*
X143491Y267332D01*
X143490Y267309D01*
X143492Y267309D01*
X143492Y267309D01*
Y258503D01*
X142112D01*
Y267057D01*
X142118Y267189D01*
X142123Y267287D01*
X142122Y267322D01*
X142079Y268069D01*
X141956Y268799D01*
X141955Y268799D01*
X141816Y269257D01*
X141566Y269725D01*
X141495Y269812D01*
X141411Y269915D01*
X141411Y269916D01*
X141311Y270037D01*
X140968Y270320D01*
X140575Y270529D01*
X140566Y270532D01*
X140441Y270581D01*
X140425Y270587D01*
X140311Y270615D01*
X139764Y270746D01*
X139104Y270798D01*
X139086Y270800D01*
X138971Y270795D01*
Y270795D01*
X138366Y270748D01*
X137752Y270600D01*
X137169Y270359D01*
X136774Y270117D01*
X136769Y270124D01*
X136754Y270114D01*
X136661Y270045D01*
X135953Y269520D01*
X135214Y268850D01*
X134648Y268226D01*
X134652Y268223D01*
X134650Y268218D01*
Y258503D01*
X133271D01*
Y277301D01*
X134650D01*
X134658Y270120D01*
D02*
G37*
G36*
X115445Y275470D02*
X102799Y260092D01*
X102721Y259997D01*
Y259997D01*
X102620Y259875D01*
X102620Y259873D01*
X102619Y259870D01*
X102619Y259870D01*
X102619Y259870D01*
X102619Y259870D01*
X102620Y259867D01*
X102621Y259865D01*
X102621Y259865D01*
X102621Y259865D01*
X102621Y259865D01*
X102624Y259864D01*
X102626Y259863D01*
X102784D01*
X102908Y259863D01*
X115802D01*
Y258503D01*
X101228D01*
Y260314D01*
X113851Y275708D01*
X113930Y275804D01*
X114030Y275926D01*
X114031Y275928D01*
X114032Y275931D01*
X114032Y275931D01*
X114032Y275931D01*
X114030Y275934D01*
X114030Y275936D01*
X114029Y275936D01*
X114029Y275936D01*
X114029Y275936D01*
X114027Y275937D01*
X114024Y275938D01*
X102354D01*
Y277301D01*
X115445D01*
Y275470D01*
D02*
G37*
G36*
X67765Y258503D02*
X66386D01*
Y277301D01*
X67765D01*
Y258503D01*
D02*
G37*
G36*
X74109Y271812D02*
X74111Y271807D01*
X74116Y271805D01*
X76309D01*
Y270445D01*
X74116D01*
X74111Y270443D01*
X74109Y270438D01*
Y262181D01*
X74104Y262176D01*
X74104D01*
X74104Y262176D01*
X74095Y262041D01*
X74144Y261298D01*
X74231Y260859D01*
X74224Y260857D01*
X74321Y260538D01*
X74479Y260243D01*
X74595Y260101D01*
X74596Y260100D01*
X74596Y260100D01*
X74596Y260100D01*
X74594Y260098D01*
X74633Y260048D01*
X74687Y260005D01*
X74862Y259872D01*
X75069Y259786D01*
X75129Y259761D01*
X75196Y259752D01*
X75325Y259722D01*
X75372Y259711D01*
X75870Y259672D01*
X75958Y259665D01*
X76004Y259668D01*
X76135Y259676D01*
X76332D01*
X76389Y259676D01*
X76419Y259677D01*
X76420Y259677D01*
X76450Y259677D01*
X76450Y259677D01*
X76509Y259679D01*
X76513Y259678D01*
X76586Y259627D01*
X76637Y259562D01*
X76635Y258382D01*
X76465Y258364D01*
X76347Y258353D01*
X76229Y258343D01*
X76187Y258340D01*
X76052Y258343D01*
X75877Y258331D01*
X75877Y258331D01*
X75743Y258316D01*
X75700Y258315D01*
X75700D01*
X75642Y258314D01*
X75593Y258314D01*
X75465Y258324D01*
X75325Y258313D01*
X74780Y258355D01*
X74249Y258483D01*
X74026Y258576D01*
X74018Y258573D01*
X73739Y258721D01*
X73475Y258938D01*
X73259Y259201D01*
X73199Y259314D01*
X73199D01*
X73133Y259430D01*
X72963Y259842D01*
X72845Y260331D01*
X72828Y260550D01*
X72827Y260550D01*
X72776Y260980D01*
X72730Y262171D01*
X72734Y262293D01*
X72729Y262293D01*
X72729Y262293D01*
Y270435D01*
X72727Y270440D01*
X72722Y270442D01*
X71014D01*
Y271802D01*
X72722D01*
X72727Y271804D01*
X72729Y271810D01*
Y275293D01*
X74109D01*
Y271812D01*
D02*
G37*
G36*
X77689Y38780D02*
X75984Y37795D01*
Y39764D01*
X77689Y38780D01*
D02*
G37*
G36*
X46193D02*
X44488Y37795D01*
Y39764D01*
X46193Y38780D01*
D02*
G37*
%LPC*%
G36*
X95116Y265368D02*
X95012Y265364D01*
X93999Y265328D01*
X93866Y265320D01*
X93775Y265317D01*
X93476Y265281D01*
X93472Y265284D01*
Y265284D01*
X92976Y265219D01*
X92976Y265219D01*
X92976Y265219D01*
X92509Y265149D01*
X92504Y265142D01*
X92205Y265091D01*
X92075Y265053D01*
X92075Y265052D01*
X91672Y264936D01*
X91671Y264937D01*
X91297Y264810D01*
X91297Y264809D01*
X91170Y264766D01*
X91076Y264720D01*
X90954Y264664D01*
X90835Y264615D01*
X90644Y264497D01*
X90643Y264496D01*
X90355Y264342D01*
X89943Y264004D01*
X89605Y263592D01*
X89354Y263122D01*
X89199Y262612D01*
X89155Y262167D01*
X89147Y262082D01*
X89151Y262034D01*
X89148Y261955D01*
X89190Y261536D01*
X89312Y261132D01*
X89511Y260761D01*
X89778Y260435D01*
X90095Y260175D01*
X90097Y260178D01*
X90465Y259952D01*
X90724Y259845D01*
Y259845D01*
X90724Y259845D01*
X90968Y259744D01*
X91203Y259687D01*
X91208Y259679D01*
X91343Y259652D01*
X91473Y259626D01*
X91473Y259626D01*
Y259626D01*
X91475Y259626D01*
X91475Y259626D01*
X91604Y259600D01*
X91750Y259572D01*
X91750Y259570D01*
X91791Y259562D01*
X91909Y259554D01*
X92042Y259544D01*
X92347Y259526D01*
Y259526D01*
X92480Y259519D01*
X92663Y259509D01*
X92666Y259509D01*
X92685Y259511D01*
X93262Y259549D01*
X93829Y259662D01*
X94044Y259735D01*
X94046Y259733D01*
X94046D01*
Y259733D01*
X94215Y259782D01*
X94876Y260055D01*
X95305Y260293D01*
X95305Y260293D01*
X95535Y260420D01*
X96218Y260904D01*
X96386Y261054D01*
X96391Y261054D01*
X97000Y261606D01*
X97244Y261876D01*
X97244Y261876D01*
X97246Y261881D01*
Y265349D01*
X97244Y265354D01*
X97239Y265356D01*
X95275D01*
X95145Y265366D01*
X95116Y265368D01*
D02*
G37*
G36*
X123914Y270796D02*
X123239Y270751D01*
X122575Y270619D01*
X122039Y270438D01*
X122041Y270433D01*
X121763Y270318D01*
X121243Y269999D01*
X120780Y269603D01*
X120678Y269484D01*
X120677Y269484D01*
X120590Y269383D01*
X120448Y269221D01*
X120100Y268700D01*
X119823Y268139D01*
X119651Y267631D01*
X119654Y267630D01*
X119495Y266995D01*
X119360Y266088D01*
X119315Y265171D01*
X119360Y264254D01*
X119495Y263346D01*
X119654Y262712D01*
X119651Y262711D01*
X119828Y262188D01*
X120114Y261608D01*
X120474Y261070D01*
X120589Y260938D01*
X120590Y260939D01*
X120591Y260939D01*
X120592Y260938D01*
X120809Y260684D01*
X121264Y260296D01*
X121774Y259983D01*
X122041Y259872D01*
X122038Y259865D01*
X122598Y259675D01*
X123221Y259551D01*
X123854Y259510D01*
X123923Y259514D01*
X123984Y259510D01*
X124056Y259515D01*
X124611Y259551D01*
X125228Y259674D01*
X125791Y259865D01*
X125788Y259872D01*
X126055Y259983D01*
X126565Y260296D01*
X127020Y260684D01*
X127237Y260938D01*
X127237Y260939D01*
X127239Y260938D01*
X127358Y261074D01*
X127724Y261621D01*
X128016Y262212D01*
X128143Y262587D01*
X128185Y262711D01*
X128359Y263404D01*
X128489Y264283D01*
X128533Y265171D01*
X128489Y266058D01*
X128359Y266938D01*
X128185Y267630D01*
X128185Y267630D01*
X128021Y268114D01*
X127738Y268687D01*
X127383Y269218D01*
X127238Y269383D01*
Y269383D01*
X127238D01*
X127151Y269484D01*
X127049Y269603D01*
X126585Y269999D01*
X126066Y270318D01*
X125788Y270433D01*
X125789Y270438D01*
X125254Y270619D01*
X124590Y270751D01*
X123914Y270796D01*
D02*
G37*
G36*
X121504Y258642D02*
X121504D01*
D01*
X121504D01*
D02*
G37*
G36*
X126400D02*
X126400D01*
X126400D01*
D01*
D02*
G37*
%LPD*%
D10*
X66535Y95571D02*
G03*
X66535Y95571I-591J0D01*
G01*
X89764Y95965D02*
G03*
X89764Y95965I-591J0D01*
G01*
D11*
X88287Y38780D02*
G03*
X88287Y38780I-492J0D01*
G01*
X56791D02*
G03*
X56791Y38780I-492J0D01*
G01*
D12*
X26575Y70866D02*
G03*
X26575Y70866I-2953J0D01*
G01*
X62008Y190197D02*
G03*
X62008Y190197I-2953J0D01*
G01*
X131457Y139370D02*
G03*
X131850Y139370I197J0D01*
G01*
D02*
G03*
X131457Y139370I-197J0D01*
G01*
X78150Y176772D02*
G03*
X78150Y176772I-2953J0D01*
G01*
X168307Y70866D02*
G03*
X168307Y70866I-2953J0D01*
G01*
D13*
X49476Y119331D02*
G03*
X49476Y119331I-394J0D01*
G01*
X19685Y246457D02*
Y255118D01*
X10630Y246457D02*
Y247638D01*
Y246457D02*
X28740D01*
Y247638D01*
Y253937D02*
Y255118D01*
X10630D02*
X28740D01*
X10630Y253937D02*
Y255118D01*
X74213Y83268D02*
Y86221D01*
X70866Y83268D02*
X74213D01*
Y91732D02*
Y94685D01*
X70866D02*
X74213D01*
X75295Y44685D02*
X78248D01*
X75295Y32874D02*
X78248D01*
X43799Y44685D02*
X46752D01*
X43799Y32874D02*
X46752D01*
X98032Y50591D02*
Y54921D01*
X90945Y50591D02*
Y54921D01*
X36417Y34055D02*
X42913D01*
X36417D02*
Y43504D01*
X42913D01*
Y34055D02*
Y43504D01*
X47638Y34055D02*
X54134D01*
X47638D02*
Y43504D01*
X54134D01*
Y34055D02*
Y43504D01*
X67913Y34055D02*
X74410D01*
X67913D02*
Y43504D01*
X74410D01*
Y34055D02*
Y43504D01*
X79134Y34055D02*
X85630D01*
X79134D02*
Y43504D01*
X85630D01*
Y34055D02*
Y43504D01*
X64567Y50591D02*
Y54921D01*
X57480Y50591D02*
Y54921D01*
X133465Y95669D02*
Y217087D01*
X196850D01*
Y95669D02*
Y217087D01*
X133465Y95669D02*
X196850D01*
Y191614D02*
X220866D01*
Y121142D02*
Y191614D01*
X196850Y121142D02*
X220866D01*
X196850Y97776D02*
X205866D01*
Y115807D01*
X196850D02*
X205866D01*
X196850Y196949D02*
X205866D01*
Y214980D01*
X196850D02*
X205866D01*
X175197Y251575D02*
X179134D01*
X175197Y244488D02*
X179134D01*
X97441Y83661D02*
Y86614D01*
X94095Y83661D02*
X97441D01*
Y92126D02*
Y95079D01*
X94095D02*
X97441D01*
X17717Y265354D02*
X21654D01*
X17717Y258268D02*
X21654D01*
X177165Y228346D02*
Y237008D01*
X186221Y235827D02*
Y237008D01*
X168110D02*
X186221D01*
X168110Y235827D02*
Y237008D01*
Y228346D02*
Y229528D01*
Y228346D02*
X186221D01*
Y229528D01*
D14*
X47063Y265630D02*
G03*
X47084Y265056I32744J884D01*
G01*
X73314Y303319D02*
G03*
X73143Y302905I414J-414D01*
G01*
X74018Y258557D02*
G03*
X75465Y258306I1307J3240D01*
G01*
X74601Y260104D02*
G03*
X75198Y259762I814J725D01*
G01*
X74239Y260860D02*
G03*
X74601Y260104I1662J333D01*
G01*
X74483Y280559D02*
G03*
X74897Y280389I411J413D01*
G01*
X74311Y280972D02*
G03*
X74483Y280559I583J-0D01*
G01*
X74311Y302905D02*
G03*
X73728Y303490I-586J0D01*
G01*
X75877Y258313D02*
G03*
X76054Y258323I-231J5771D01*
G01*
X76611Y259696D02*
G03*
X76645Y259700I-160J1335D01*
G01*
X76544Y259689D02*
G03*
X76611Y259696I-111J1493D01*
G01*
X76512Y259687D02*
G03*
X76544Y259689I-97J1717D01*
G01*
X83289Y271759D02*
G03*
X82174Y271088I2545J-5486D01*
G01*
X85807Y270744D02*
G03*
X85392Y270778I-401J-2378D01*
G01*
X85255Y272153D02*
G03*
X84338Y272077I50J-6234D01*
G01*
X88312Y269142D02*
G03*
X88185Y268425I5270J-1299D01*
G01*
X88524Y269782D02*
G03*
X88407Y269472I3764J-1594D01*
G01*
X88407D02*
G03*
X88312Y269142I4305J-1424D01*
G01*
X88969Y259173D02*
G03*
X90285Y258418I2573J2958D01*
G01*
X90604Y265910D02*
G03*
X89739Y265452I2300J-5393D01*
G01*
X90670Y270195D02*
G03*
X89555Y268425I1239J-2017D01*
G01*
X90236Y271566D02*
G03*
X89674Y271235I1602J-3361D01*
G01*
X89674Y271235D02*
G03*
X88822Y270344I1931J-2701D01*
G01*
X90555Y271704D02*
G03*
X90236Y271566I1620J-4180D01*
G01*
X91752Y259587D02*
G03*
X92043Y259554I804J5783D01*
G01*
X92348Y259534D02*
G03*
X92666Y259527I315J7513D01*
G01*
X92043Y259554D02*
G03*
X92348Y259534I582J6599D01*
G01*
X91211Y259693D02*
G03*
X91475Y259633I1138J4426D01*
G01*
X90727Y259851D02*
G03*
X91211Y259693I1439J3578D01*
G01*
X92078Y265040D02*
G03*
X91674Y264928I1687J-6885D01*
G01*
X92512Y265135D02*
G03*
X92078Y265040I1583J-8327D01*
G01*
X91301Y264800D02*
G03*
X90959Y264654I1778J-4641D01*
G01*
X91674Y264928D02*
G03*
X91301Y264800I1748J-5663D01*
G01*
X92196Y266406D02*
G03*
X91626Y266266I2124J-9894D01*
G01*
X92806Y266520D02*
G03*
X92196Y266406I1895J-11778D01*
G01*
X91626Y266266D02*
G03*
X91095Y266101I2288J-8284D01*
G01*
X92080Y272071D02*
G03*
X91661Y272007I1022J-8079D01*
G01*
X92142Y270685D02*
G03*
X91850Y270632I907J-5898D01*
G01*
X92523Y272117D02*
G03*
X92080Y272071I750J-9482D01*
G01*
X92453Y270725D02*
G03*
X92142Y270685I759J-6996D01*
G01*
X92783Y270755D02*
G03*
X92453Y270725I563J-8255D01*
G01*
X91661Y272007D02*
G03*
X91267Y271925I1233J-6864D01*
G01*
X91267D02*
G03*
X90899Y271824I1395J-5819D01*
G01*
X91321Y270492D02*
G03*
X91085Y270405I1142J-3445D01*
G01*
X91576Y270568D02*
G03*
X91321Y270492I1091J-4135D01*
G01*
X91850Y270632D02*
G03*
X91576Y270568I1015J-4948D01*
G01*
X91746Y279204D02*
G03*
X92803Y279762I-59J1393D01*
G01*
X91746Y280389D02*
G03*
X91869Y280453I-77J297D01*
G01*
X91492Y286253D02*
G03*
X91905Y286425I0J583D01*
G01*
D02*
G03*
X92075Y286838I-413J411D01*
G01*
X90907D02*
G03*
X91078Y286424I586J0D01*
G01*
D02*
G03*
X91492Y286253I414J414D01*
G01*
X92247Y302276D02*
G03*
X92075Y301862I414J-414D01*
G01*
X92443Y303604D02*
G03*
X91357Y303154I0J-1536D01*
G01*
X93229Y258239D02*
G03*
X94520Y258557I-812J6080D01*
G01*
X93473Y265272D02*
G03*
X92977Y265212I1199J-11962D01*
G01*
X94000Y265315D02*
G03*
X93473Y265272I893J-14199D01*
G01*
X94143Y266673D02*
G03*
X93455Y266609I1174J-16472D01*
G01*
X94871Y266711D02*
G03*
X94143Y266673I648J-19334D01*
G01*
X93486Y272153D02*
G03*
X92992Y272144I-20J-12910D01*
G01*
X95301Y260300D02*
G03*
X96383Y261064I-3738J6441D01*
G01*
X98140Y279790D02*
G03*
X98311Y279376I586J0D01*
G01*
X98725Y280375D02*
G03*
X98311Y280204I0J-586D01*
G01*
D02*
G03*
X98140Y279790I414J-414D01*
G01*
X98311Y279376D02*
G03*
X98725Y279204I414J414D01*
G01*
X107918Y302202D02*
G03*
X107932Y302364I-123J92D01*
G01*
X109608Y303195D02*
G03*
X108894Y303604I-667J-337D01*
G01*
X113800Y280545D02*
G03*
X113971Y280958I-411J413D01*
G01*
X113386Y280375D02*
G03*
X113800Y280545I3J583D01*
G01*
X114696Y279662D02*
G03*
X115140Y280757I-1095J1081D01*
G01*
X115722Y302439D02*
G03*
X115140Y301853I3J-586D01*
G01*
X115508Y303604D02*
G03*
X114421Y303154I0J-1536D01*
G01*
X133553Y280743D02*
G03*
X135090Y279204I1539J0D01*
G01*
X134893Y280556D02*
G03*
X135307Y280386I411J413D01*
G01*
X134722Y280969D02*
G03*
X134893Y280556I583J-0D01*
G01*
X137187Y271740D02*
G03*
X135954Y271037I2172J-5242D01*
G01*
X139359Y272153D02*
G03*
X138330Y272066I24J-6455D01*
G01*
X141941Y268795D02*
G03*
X141405Y269911I-2626J-574D01*
G01*
X141470Y271717D02*
G03*
X140849Y271959I-1649J-3312D01*
G01*
X141763Y279380D02*
G03*
X141929Y279801I-419J409D01*
G01*
X141929Y279801D02*
G03*
X141347Y280386I-586J0D01*
G01*
X141347Y279204D02*
G03*
X141763Y279380I-3J586D01*
G01*
X143334Y269053D02*
G03*
X143126Y269779I-5262J-1107D01*
G01*
X143458Y268230D02*
G03*
X143334Y269053I-7168J-660D01*
G01*
X152224Y272077D02*
G03*
X151184Y271759I732J-4254D01*
G01*
X154042Y270572D02*
G03*
X152787Y270778I-1156J-3113D01*
G01*
X159010Y271656D02*
G03*
X157831Y270909I2437J-5152D01*
G01*
X161326Y270764D02*
G03*
X161037Y270772I-285J-4842D01*
G01*
X163256Y269757D02*
G03*
X163143Y269936I-1809J-1024D01*
G01*
X163357Y269557D02*
G03*
X163256Y269757I-2255J-1019D01*
G01*
X163447Y269336D02*
G03*
X163357Y269557I-2812J-1009D01*
G01*
X162733Y271959D02*
G03*
X161392Y272153I-1282J-4138D01*
G01*
X162699Y270362D02*
G03*
X162514Y270471I-1079J-1621D01*
G01*
X163293Y271717D02*
G03*
X162733Y271959I-1521J-2745D01*
G01*
X161853Y270697D02*
G03*
X161598Y270739I-688J-3400D01*
G01*
X162091Y270638D02*
G03*
X161853Y270697I-822J-2828D01*
G01*
X162312Y270563D02*
G03*
X162091Y270638I-925J-2347D01*
G01*
X162514Y270471D02*
G03*
X162312Y270563I-1006J-1948D01*
G01*
X163739Y267190D02*
G03*
X163715Y267910I-10268J20D01*
G01*
X165080Y268230D02*
G03*
X164969Y269053I-7915J-651D01*
G01*
X163644Y268544D02*
G03*
X163590Y268830I-5308J-851D01*
G01*
X164969Y269053D02*
G03*
X164783Y269779I-5741J-1082D01*
G01*
X163590Y268830D02*
G03*
X163524Y269094I-4321J-934D01*
G01*
X163686Y268238D02*
G03*
X163644Y268544I-6473J-725D01*
G01*
X47054Y266195D02*
G03*
X47063Y265630I28637J209D01*
G01*
X48129Y260866D02*
G03*
X49392Y259458I4074J2384D01*
G01*
X48447Y266434D02*
G03*
X48837Y262937I12920J-328D01*
G01*
X59765Y262946D02*
G03*
X60144Y266434I-12721J3148D01*
G01*
X61209Y262910D02*
G03*
X61538Y266378I-16160J3283D01*
G01*
X72722Y262293D02*
G03*
X72808Y260548I15187J-123D01*
G01*
X72808D02*
G03*
X73182Y259304I3208J286D01*
G01*
X74116Y262176D02*
G03*
X74239Y260860I5670J-135D01*
G01*
X81750Y269035D02*
G03*
X81006Y268032I5033J-4511D01*
G01*
X83741Y270538D02*
G03*
X82684Y269911I1981J-4541D01*
G01*
X87773Y261897D02*
G03*
X88093Y260361I3608J-49D01*
G01*
X89167Y262034D02*
G03*
X90104Y260188I2132J-79D01*
G01*
X91475Y259633D02*
G03*
X91752Y259587I987J5062D01*
G01*
X91085Y270405D02*
G03*
X90868Y270306I1176J-2867D01*
G01*
X91357Y303154D02*
G03*
X90907Y302068I1086J-1086D01*
G01*
X92661Y302447D02*
G03*
X92247Y302276I0J-586D01*
G01*
X96642Y269618D02*
G03*
X95527Y270468I-1997J-1463D01*
G01*
X98354Y269258D02*
G03*
X97462Y270823I-3666J-1054D01*
G01*
X98633Y267190D02*
G03*
X98354Y269258I-7188J85D01*
G01*
X97231Y266724D02*
G03*
X97127Y268338I-11532J74D01*
G01*
X109513Y302378D02*
G03*
X109608Y303195I-572J481D01*
G01*
X119662Y262714D02*
G03*
X120596Y260944I4736J1367D01*
G01*
X120596Y269378D02*
G03*
X119662Y267627I3650J-3072D01*
G01*
X127232Y260944D02*
G03*
X128175Y262714I-3870J3196D01*
G01*
X128175Y267627D02*
G03*
X127232Y269378I-4665J-1382D01*
G01*
X134722Y302068D02*
G03*
X134272Y303154I-1536J0D01*
G01*
X141405Y269911D02*
G03*
X140435Y270563I-1698J-1477D01*
G01*
X143499Y267309D02*
G03*
X143458Y268230I-9743J23D01*
G01*
X150024Y271062D02*
G03*
X148716Y269833I5427J-7082D01*
G01*
X154878Y269936D02*
G03*
X154042Y270572I-1478J-1077D01*
G01*
X155450Y267190D02*
G03*
X155322Y268821I-8936J118D01*
G01*
X163143Y269936D02*
G03*
X162699Y270362I-1379J-989D01*
G01*
X164783Y269779D02*
G03*
X164522Y270409I-4170J-1357D01*
G01*
X165117Y267309D02*
G03*
X165080Y268230I-10813J29D01*
G01*
X163715Y267910D02*
G03*
X163686Y268238I-7831J-547D01*
G01*
X47114Y264474D02*
G03*
X47418Y262583I9741J596D01*
G01*
X48837Y262937D02*
G03*
X49981Y260832I4663J1169D01*
G01*
X58649Y260841D02*
G03*
X59765Y262946I-3649J3281D01*
G01*
X90648Y264490D02*
G03*
X89167Y262034I1218J-2409D01*
G01*
X156732Y269713D02*
G03*
X155397Y271553I-3255J-958D01*
G01*
X118405Y268132D02*
G03*
X118405Y262198I10067J-2967D01*
G01*
X119662Y267627D02*
G03*
X119662Y262714I9006J-2457D01*
G01*
X128175D02*
G03*
X128175Y267627I-8699J2457D01*
G01*
X129499Y262207D02*
G03*
X129499Y268107I-10089J2950D01*
G01*
X49392Y259458D02*
G03*
X51394Y258504I3606J4993D01*
G01*
X51394Y258504D02*
G03*
X54294Y258153I2693J10089D01*
G01*
X49981Y260832D02*
G03*
X51818Y259801I2759J2762D01*
G01*
X56812Y259801D02*
G03*
X58649Y260841I-858J3659D01*
G01*
X73182Y259304D02*
G03*
X74018Y258557I1523J863D01*
G01*
X75198Y259762D02*
G03*
X76003Y259683I760J3647D01*
G01*
X73143Y280743D02*
G03*
X74679Y279204I1539J0D01*
G01*
X73728Y303490D02*
G03*
X73314Y303319I0J-586D01*
G01*
X82684Y269911D02*
G03*
X81750Y269035I4008J-5212D01*
G01*
X84338Y272077D02*
G03*
X83289Y271760I724J-4275D01*
G01*
X84887Y270778D02*
G03*
X83741Y270538I-5J-2836D01*
G01*
X90285Y258418D02*
G03*
X91930Y258153I1606J4734D01*
G01*
X94520Y258557D02*
G03*
X95845Y259193I-2493J6891D01*
G01*
X91930Y258153D02*
G03*
X93229Y258239I18J9536D01*
G01*
X94044Y259742D02*
G03*
X95301Y260300I-1937J6064D01*
G01*
X90104Y260188D02*
G03*
X90727Y259851I1756J2500D01*
G01*
X95145Y265349D02*
G03*
X94000Y265315I-29J-18137D01*
G01*
X92977Y265212D02*
G03*
X92512Y265135I1425J-10012D01*
G01*
X90959Y264654D02*
G03*
X90648Y264490I1790J-3795D01*
G01*
X93455Y266609D02*
G03*
X92806Y266520I1584J-13962D01*
G01*
X95639Y266724D02*
G03*
X94871Y266711I-10J-22573D01*
G01*
X97127Y268338D02*
G03*
X96642Y269618I-2861J-353D01*
G01*
X90868Y270306D02*
G03*
X90670Y270195I1201J-2386D01*
G01*
X97462Y270823D02*
G03*
X95867Y271810I-2832J-2795D01*
G01*
X95867D02*
G03*
X93486Y272153I-2210J-6904D01*
G01*
X95527Y270468D02*
G03*
X93500Y270778I-1814J-5087D01*
G01*
X92992Y272144D02*
G03*
X92523Y272117I406J-11087D01*
G01*
X93500Y270778D02*
G03*
X92783Y270755I-18J-10472D01*
G01*
X90899Y271824D02*
G03*
X90555Y271704I1521J-4929D01*
G01*
X113606Y279204D02*
G03*
X114696Y279662I-6J1539D01*
G01*
X120596Y260944D02*
G03*
X122044Y259879I2907J2434D01*
G01*
X125785D02*
G03*
X127232Y260944I-1460J3500D01*
G01*
X126404Y271676D02*
G03*
X123923Y272153I-2401J-5799D01*
G01*
X136779Y270109D02*
G03*
X134658Y268218I5620J-8444D01*
G01*
X140435Y270563D02*
G03*
X138971Y270778I-1349J-4097D01*
G01*
X140849Y271959D02*
G03*
X139359Y272153I-1422J-5114D01*
G01*
X138330Y272066D02*
G03*
X137187Y271740I804J-4985D01*
G01*
X133553Y301853D02*
G03*
X132971Y302439I-586J0D01*
G01*
X134272Y303154D02*
G03*
X133185Y303604I-1086J-1086D01*
G01*
X155322Y268821D02*
G03*
X154878Y269936I-2723J-437D01*
G01*
X155397Y271553D02*
G03*
X153166Y272153I-2101J-3366D01*
G01*
X153166Y272153D02*
G03*
X152224Y272077I26J-6265D01*
G01*
X151184Y271759D02*
G03*
X150024Y271062I2578J-5603D01*
G01*
X163524Y269094D02*
G03*
X163447Y269336I-3494J-984D01*
G01*
X161392Y272153D02*
G03*
X160215Y272041I14J-6413D01*
G01*
X164522Y270409D02*
G03*
X163293Y271717I-2724J-1330D01*
G01*
X161598Y270739D02*
G03*
X161326Y270764I-513J-4069D01*
G01*
X160215Y272041D02*
G03*
X159010Y271656I972J-5120D01*
G01*
X51818Y259801D02*
G03*
X54302Y259522I2376J9967D01*
G01*
X47418Y262583D02*
G03*
X48129Y260866I6788J1804D01*
G01*
X57841Y258710D02*
G03*
X60066Y260322I-1762J4774D01*
G01*
X88093Y260361D02*
G03*
X88969Y259173I3210J1449D01*
G01*
X88822Y270344D02*
G03*
X88524Y269782I3036J-1969D01*
G01*
X95845Y259193D02*
G03*
X97239Y260213I-4825J8054D01*
G01*
X92666Y259527D02*
G03*
X94044Y259742I19J4405D01*
G01*
X96383Y261064D02*
G03*
X97239Y261881I-6324J7484D01*
G01*
X91095Y266101D02*
G03*
X90604Y265910I2403J-6922D01*
G01*
X114421Y303154D02*
G03*
X113971Y302068I1086J-1086D01*
G01*
X107932Y302364D02*
G03*
X107793Y302447I-137J-70D01*
G01*
X119618Y259990D02*
G03*
X121497Y258624I3811J3266D01*
G01*
X118405Y262198D02*
G03*
X119618Y259990I6095J1911D01*
G01*
X122043Y270427D02*
G03*
X120596Y269378I1484J-3571D01*
G01*
X119609Y270323D02*
G03*
X118405Y268132I4723J-4023D01*
G01*
X123923Y259527D02*
G03*
X125785Y259879I62J4787D01*
G01*
X126407Y258624D02*
G03*
X128297Y259998I-2008J4749D01*
G01*
D02*
G03*
X129499Y262207I-4843J4067D01*
G01*
X129499Y268107D02*
G03*
X128292Y270301I-5950J-1844D01*
G01*
X127232Y269378D02*
G03*
X125785Y270427I-2931J-2523D01*
G01*
X135954Y271037D02*
G03*
X134666Y269833I5077J-6721D01*
G01*
X138971Y270778D02*
G03*
X136779Y270109I25J-4004D01*
G01*
X142105Y267190D02*
G03*
X141941Y268795I-6970J97D01*
G01*
X152787Y270778D02*
G03*
X150707Y270100I30J-3625D01*
G01*
X157831Y270909D02*
G03*
X156732Y269713I3985J-4762D01*
G01*
X161037Y270772D02*
G03*
X158879Y270095I49J-3931D01*
G01*
X60066Y260322D02*
G03*
X61209Y262910I-5077J3789D01*
G01*
X121497Y271690D02*
G03*
X119609Y270323I1987J-4733D01*
G01*
X128292Y270301D02*
G03*
X126404Y271676I-3875J-3337D01*
G01*
X143127Y269779D02*
G03*
X141470Y271717I-3181J-1043D01*
G01*
X54294Y258153D02*
G03*
X57841Y258710I290J9713D01*
G01*
X121497Y258624D02*
G03*
X126407Y258624I2455J6225D01*
G01*
X125785Y270427D02*
G03*
X122044Y270427I-1871J-4807D01*
G01*
X123923Y272153D02*
G03*
X121497Y271690I-73J-6206D01*
G01*
X54302Y259522D02*
G03*
X56812Y259801I99J10542D01*
G01*
X82174Y271088D02*
G03*
X81006Y269972I4338J-5714D01*
G01*
X122044Y259879D02*
G03*
X123923Y259527I1810J4480D01*
G01*
X158879Y270095D02*
G03*
X156844Y268179I4894J-7239D01*
G01*
X150707Y270100D02*
G03*
X148716Y268185I5681J-7897D01*
G01*
X89739Y265452D02*
G03*
X87773Y261897I2042J-3450D01*
G01*
X47084Y265056D02*
X47114Y264474D01*
X47053Y266381D02*
X47054Y266195D01*
X71007Y270435D02*
Y271810D01*
X75465Y258306D02*
X75524Y258306D01*
X75583Y258306D01*
X75642Y258307D01*
X75700Y258308D02*
X75760Y258309D01*
X75819Y258311D01*
X75877Y258313D01*
X76054Y258323D02*
X76112Y258327D01*
X76230Y258336D01*
X76348Y258346D01*
X76466Y258357D01*
X76642Y258376D01*
X76480Y259685D02*
X76512Y259687D01*
X76449Y259684D02*
X76480Y259685D01*
X76419Y259684D02*
X76449Y259684D01*
X76389Y259684D02*
X76419Y259684D01*
X76332Y259683D02*
X76389Y259684D01*
X76003Y259683D02*
X76332D01*
X76316Y270438D02*
Y271812D01*
X85255Y272153D02*
X85514D01*
X85793Y272128D02*
X85807Y270744D01*
X85514Y272153D02*
X85793Y272128D01*
X84887Y270778D02*
X85392D01*
X97239Y258496D02*
X98633D01*
X142105D02*
X143499D01*
X155450Y258490D02*
X156844D01*
X163739Y258496D02*
X165133D01*
X72722Y271810D02*
Y275301D01*
X74116Y271812D02*
Y275301D01*
X76642Y258376D02*
X76645Y259700D01*
X97239Y258496D02*
Y260213D01*
X101221Y258496D02*
Y260316D01*
X102347Y275931D02*
Y277308D01*
X115809Y258496D02*
Y259870D01*
X115452Y275468D02*
Y277308D01*
X81006Y269972D02*
Y271810D01*
X97239Y261881D02*
Y265349D01*
X134658Y277308D02*
X134666Y269833D01*
X148716D02*
Y271810D01*
X47053Y266381D02*
Y277308D01*
X48447Y266434D02*
Y277308D01*
X60144Y266434D02*
Y277308D01*
X61538Y266378D02*
Y277308D01*
X66378Y258496D02*
Y277308D01*
X67773Y258496D02*
Y277308D01*
X73143Y280743D02*
Y302905D01*
X72722Y262293D02*
Y270435D01*
X74311Y280972D02*
Y302905D01*
X74116Y262176D02*
Y270438D01*
X79611Y258496D02*
Y271810D01*
X81006Y258496D02*
Y268032D01*
X92075Y286838D02*
Y301862D01*
X90907Y286838D02*
Y302068D01*
X98633Y258496D02*
Y267190D01*
X113971Y280958D02*
Y302068D01*
X115140Y280757D02*
Y301853D01*
X133264Y258496D02*
Y277308D01*
X134722Y280969D02*
Y302068D01*
X133553Y280743D02*
Y301853D01*
X134658Y258496D02*
Y268218D01*
X143499Y258496D02*
Y267309D01*
X142105Y258496D02*
Y267190D01*
X147322Y258496D02*
Y271810D01*
X148716Y258496D02*
Y268185D01*
X156844Y258490D02*
Y268179D01*
X155450Y258490D02*
Y267190D01*
X165117Y267309D02*
X165133Y258496D01*
X163739D02*
Y267190D01*
X47053Y277308D02*
X48447D01*
X60144D02*
X61538D01*
X66378Y258496D02*
X67773D01*
X66378Y277308D02*
X67773D01*
X79611Y258496D02*
X81006D01*
X75642Y258307D02*
X75700Y258308D01*
X74116Y271812D02*
X76316D01*
X74116Y270438D02*
X76316D01*
X79611Y271810D02*
X81006D01*
X72722Y275301D02*
X74116D01*
X88185Y268425D02*
X89555D01*
X95145Y265349D02*
X97239D01*
X95639Y266724D02*
X97231D01*
X133264Y258496D02*
X134658D01*
X133264Y277308D02*
X134658D01*
X147322Y258496D02*
X148716D01*
X147322Y271810D02*
X148716D01*
X71007D02*
X72722D01*
X71007Y270435D02*
X72722D01*
X74897Y280389D02*
X91746D01*
X74679Y279204D02*
X91746D01*
X102626Y259870D02*
X115809D01*
X115722Y302439D02*
X132971D01*
X115508Y303604D02*
X133185D01*
X102626Y259870D02*
X115452Y275468D01*
X101221Y258496D02*
X115809D01*
X102347Y275931D02*
X114024D01*
X102347Y277308D02*
X115452D01*
X98725Y280375D02*
X113386D01*
X98725Y279204D02*
X113606D01*
X135307Y280386D02*
X141347D01*
X135090Y279204D02*
X141347D01*
X92443Y303604D02*
X108894D01*
X92661Y302447D02*
X107793D01*
X92803Y279762D02*
X109513Y302378D01*
X91869Y280453D02*
X107918Y302202D01*
X101221Y260316D02*
X114024Y275931D01*
D15*
X138760Y-26232D02*
Y10591D01*
Y-26232D02*
X152579D01*
Y10591D01*
X156669Y34863D02*
Y36768D01*
X159665D01*
X156669Y25768D02*
Y26476D01*
X134669Y25768D02*
Y26476D01*
Y25768D02*
X156669D01*
X131673Y36768D02*
X134669D01*
Y34863D02*
Y36768D01*
X131673Y35709D02*
Y36768D01*
Y10591D02*
Y25629D01*
X159665Y35709D02*
Y36768D01*
Y10591D02*
Y25629D01*
X131673Y10591D02*
X159665D01*
X99390Y-26232D02*
Y10591D01*
Y-26232D02*
X113209D01*
Y10591D01*
X117299Y34863D02*
Y36768D01*
X120295D01*
X117299Y25768D02*
Y26476D01*
X95299Y25768D02*
Y26476D01*
Y25768D02*
X117299D01*
X92303Y36768D02*
X95299D01*
Y34863D02*
Y36768D01*
X92303Y35709D02*
Y36768D01*
Y10591D02*
Y25629D01*
X120295Y35709D02*
Y36768D01*
Y10591D02*
Y25629D01*
X92303Y10591D02*
X120295D01*
X32128Y247749D02*
Y253747D01*
X35127D01*
X36127Y252747D01*
Y250748D01*
X35127Y249748D01*
X32128D01*
X34128D02*
X36127Y247749D01*
X38126D02*
X40126D01*
X39126D01*
Y253747D01*
X38126Y252747D01*
X49528Y92347D02*
X53527D01*
X51528D01*
Y86349D01*
X59525D02*
X55526D01*
X59525Y90347D01*
Y91347D01*
X58525Y92347D01*
X56526D01*
X55526Y91347D01*
X145063Y44519D02*
X144064Y45519D01*
X142064D01*
X141065Y44519D01*
Y43519D01*
X142064Y42520D01*
X144064D01*
X145063Y41520D01*
Y40520D01*
X144064Y39521D01*
X142064D01*
X141065Y40520D01*
X151061Y39521D02*
X147063D01*
X151061Y43519D01*
Y44519D01*
X150062Y45519D01*
X148062D01*
X147063Y44519D01*
X107087Y44125D02*
X106087Y45125D01*
X104088D01*
X103088Y44125D01*
Y43126D01*
X104088Y42126D01*
X106087D01*
X107087Y41126D01*
Y40127D01*
X106087Y39127D01*
X104088D01*
X103088Y40127D01*
X109086Y39127D02*
X111085D01*
X110086D01*
Y45125D01*
X109086Y44125D01*
X58096Y33749D02*
X64094D01*
Y36748D01*
X63094Y37748D01*
X59096D01*
X58096Y36748D01*
Y33749D01*
X64094Y43746D02*
Y39748D01*
X60095Y43746D01*
X59096D01*
X58096Y42747D01*
Y40747D01*
X59096Y39748D01*
X27596Y34749D02*
X33594D01*
Y37748D01*
X32595Y38748D01*
X28596D01*
X27596Y37748D01*
Y34749D01*
X33594Y40747D02*
Y42747D01*
Y41747D01*
X27596D01*
X28596Y40747D01*
X16628Y64747D02*
X20627D01*
X18628D01*
Y58749D01*
X22626D02*
Y64747D01*
X25625D01*
X26625Y63747D01*
Y61748D01*
X25625Y60748D01*
X22626D01*
X28624Y58749D02*
X30624D01*
X29624D01*
Y64747D01*
X28624Y63747D01*
X90828Y64949D02*
Y70947D01*
X93827D01*
X94827Y69947D01*
Y67948D01*
X93827Y66948D01*
X90828D01*
X92827D02*
X94827Y64949D01*
X99825D02*
Y70947D01*
X96826Y67948D01*
X100825D01*
X38228Y72147D02*
Y66149D01*
X42227D01*
X48225Y71147D02*
X47225Y72147D01*
X45226D01*
X44226Y71147D01*
Y67149D01*
X45226Y66149D01*
X47225D01*
X48225Y67149D01*
Y69148D01*
X46226D01*
X50224Y66149D02*
X52224D01*
X51224D01*
Y72147D01*
X50224Y71147D01*
X68728Y72147D02*
Y66149D01*
X72727D01*
X78725Y71147D02*
X77725Y72147D01*
X75726D01*
X74726Y71147D01*
Y67149D01*
X75726Y66149D01*
X77725D01*
X78725Y67149D01*
Y69148D01*
X76726D01*
X84723Y66149D02*
X80724D01*
X84723Y70148D01*
Y71147D01*
X83723Y72147D01*
X81724D01*
X80724Y71147D01*
X56028Y64949D02*
Y70947D01*
X59027D01*
X60027Y69947D01*
Y67948D01*
X59027Y66948D01*
X56028D01*
X58027D02*
X60027Y64949D01*
X62026Y69947D02*
X63026Y70947D01*
X65025D01*
X66025Y69947D01*
Y68947D01*
X65025Y67948D01*
X64025D01*
X65025D01*
X66025Y66948D01*
Y65948D01*
X65025Y64949D01*
X63026D01*
X62026Y65948D01*
X56928Y202347D02*
X60927D01*
X58928D01*
Y196349D01*
X62926D02*
Y202347D01*
X65925D01*
X66925Y201347D01*
Y199348D01*
X65925Y198348D01*
X62926D01*
X68924Y201347D02*
X69924Y202347D01*
X71923D01*
X72923Y201347D01*
Y200347D01*
X71923Y199348D01*
X70924D01*
X71923D01*
X72923Y198348D01*
Y197348D01*
X71923Y196349D01*
X69924D01*
X68924Y197348D01*
X139433Y227802D02*
X137434D01*
X138434D01*
Y222804D01*
X137434Y221804D01*
X136434D01*
X135435Y222804D01*
X145431Y221804D02*
X141433D01*
X145431Y225803D01*
Y226802D01*
X144432Y227802D01*
X142432D01*
X141433Y226802D01*
X35827Y244731D02*
X33827D01*
X34827D01*
Y239733D01*
X33827Y238733D01*
X32828D01*
X31828Y239733D01*
X37826Y238733D02*
X39825D01*
X38826D01*
Y244731D01*
X37826Y243732D01*
X158927Y250047D02*
X157927Y251047D01*
X155928D01*
X154928Y250047D01*
Y246048D01*
X155928Y245049D01*
X157927D01*
X158927Y246048D01*
X164925Y245049D02*
X160926D01*
X164925Y249047D01*
Y250047D01*
X163925Y251047D01*
X161926D01*
X160926Y250047D01*
X105428Y92747D02*
X109427D01*
X107428D01*
Y86749D01*
X111426D02*
X113426D01*
X112426D01*
Y92747D01*
X111426Y91747D01*
X73028Y188947D02*
X77027D01*
X75028D01*
Y182949D01*
X79026D02*
Y188947D01*
X82025D01*
X83025Y187947D01*
Y185948D01*
X82025Y184948D01*
X79026D01*
X89023Y182949D02*
X85024D01*
X89023Y186948D01*
Y187947D01*
X88023Y188947D01*
X86024D01*
X85024Y187947D01*
X72128Y105249D02*
Y111247D01*
X75127D01*
X76127Y110247D01*
Y108248D01*
X75127Y107248D01*
X72128D01*
X74128D02*
X76127Y105249D01*
X78126Y110247D02*
X79126Y111247D01*
X81125D01*
X82125Y110247D01*
Y109248D01*
X81125Y108248D01*
X82125Y107248D01*
Y106248D01*
X81125Y105249D01*
X79126D01*
X78126Y106248D01*
Y107248D01*
X79126Y108248D01*
X78126Y109248D01*
Y110247D01*
X79126Y108248D02*
X81125D01*
X94628Y105649D02*
Y111647D01*
X97627D01*
X98627Y110647D01*
Y108648D01*
X97627Y107648D01*
X94628D01*
X96627D02*
X98627Y105649D01*
X100626Y111647D02*
X104625D01*
Y110647D01*
X100626Y106649D01*
Y105649D01*
X157328Y64747D02*
X161327D01*
X159327D01*
Y58749D01*
X163326D02*
Y64747D01*
X166325D01*
X167325Y63747D01*
Y61748D01*
X166325Y60748D01*
X163326D01*
X172323Y58749D02*
Y64747D01*
X169324Y61748D01*
X173323D01*
X154728Y229649D02*
Y235647D01*
X157727D01*
X158727Y234647D01*
Y232648D01*
X157727Y231648D01*
X154728D01*
X156728D02*
X158727Y229649D01*
X164725D02*
X160726D01*
X164725Y233647D01*
Y234647D01*
X163725Y235647D01*
X161726D01*
X160726Y234647D01*
X35827Y263847D02*
X34827Y264847D01*
X32828D01*
X31828Y263847D01*
Y259848D01*
X32828Y258849D01*
X34827D01*
X35827Y259848D01*
X37826Y258849D02*
X39825D01*
X38826D01*
Y264847D01*
X37826Y263847D01*
D16*
X-2551Y80335D02*
X45984D01*
X-2551Y234626D02*
X45984D01*
Y80335D02*
Y234626D01*
M02*
