G04*
G04 #@! TF.GenerationSoftware,Altium Limited,Altium Designer,24.4.1 (13)*
G04*
G04 Layer_Color=8421504*
%FSLAX25Y25*%
%MOIN*%
G70*
G04*
G04 #@! TF.SameCoordinates,DD3FF33E-3B50-40DC-AE4A-396B39D6A24E*
G04*
G04*
G04 #@! TF.FilePolarity,Positive*
G04*
G01*
G75*
%ADD17R,0.04724X0.06496*%
%ADD18O,0.04331X0.02362*%
%ADD19R,0.05906X0.10236*%
G04:AMPARAMS|DCode=20|XSize=43.31mil|YSize=65.35mil|CornerRadius=4.33mil|HoleSize=0mil|Usage=FLASHONLY|Rotation=90.000|XOffset=0mil|YOffset=0mil|HoleType=Round|Shape=RoundedRectangle|*
%AMROUNDEDRECTD20*
21,1,0.04331,0.05669,0,0,90.0*
21,1,0.03465,0.06535,0,0,90.0*
1,1,0.00866,0.02835,0.01732*
1,1,0.00866,0.02835,-0.01732*
1,1,0.00866,-0.02835,-0.01732*
1,1,0.00866,-0.02835,0.01732*
%
%ADD20ROUNDEDRECTD20*%
G04:AMPARAMS|DCode=21|XSize=47.64mil|YSize=71.65mil|CornerRadius=7.86mil|HoleSize=0mil|Usage=FLASHONLY|Rotation=180.000|XOffset=0mil|YOffset=0mil|HoleType=Round|Shape=RoundedRectangle|*
%AMROUNDEDRECTD21*
21,1,0.04764,0.05593,0,0,180.0*
21,1,0.03192,0.07165,0,0,180.0*
1,1,0.01572,-0.01596,0.02797*
1,1,0.01572,0.01596,0.02797*
1,1,0.01572,0.01596,-0.02797*
1,1,0.01572,-0.01596,-0.02797*
%
%ADD21ROUNDEDRECTD21*%
G04:AMPARAMS|DCode=22|XSize=19.68mil|YSize=35.43mil|CornerRadius=3.25mil|HoleSize=0mil|Usage=FLASHONLY|Rotation=180.000|XOffset=0mil|YOffset=0mil|HoleType=Round|Shape=RoundedRectangle|*
%AMROUNDEDRECTD22*
21,1,0.01968,0.02894,0,0,180.0*
21,1,0.01319,0.03543,0,0,180.0*
1,1,0.00650,-0.00659,0.01447*
1,1,0.00650,0.00659,0.01447*
1,1,0.00650,0.00659,-0.01447*
1,1,0.00650,-0.00659,-0.01447*
%
%ADD22ROUNDEDRECTD22*%
D17*
X25197Y250787D02*
D03*
X14173D02*
D03*
X171653Y232677D02*
D03*
X182677D02*
D03*
D18*
X75984Y88976D02*
D03*
X65748Y85236D02*
D03*
Y92716D02*
D03*
X99213Y89370D02*
D03*
X88976Y85630D02*
D03*
Y93110D02*
D03*
D19*
X70866Y38780D02*
D03*
X82677D02*
D03*
X39370D02*
D03*
X51181D02*
D03*
D20*
X94488Y46850D02*
D03*
Y58661D02*
D03*
X61024Y46850D02*
D03*
Y58661D02*
D03*
D21*
X171457Y248031D02*
D03*
X182874D02*
D03*
X13976Y261811D02*
D03*
X25394D02*
D03*
D22*
X80039Y99606D02*
D03*
X74291D02*
D03*
X102480Y100000D02*
D03*
X96732D02*
D03*
M02*
