G04*
G04 #@! TF.GenerationSoftware,Altium Limited,Altium Designer,24.4.1 (13)*
G04*
G04 Layer_Physical_Order=1*
G04 Layer_Color=255*
%FSLAX25Y25*%
%MOIN*%
G70*
G04*
G04 #@! TF.SameCoordinates,DD3FF33E-3B50-40DC-AE4A-396B39D6A24E*
G04*
G04*
G04 #@! TF.FilePolarity,Positive*
G04*
G01*
G75*
%ADD10C,0.01181*%
%ADD17R,0.04724X0.06496*%
%ADD18O,0.04331X0.02362*%
%ADD19R,0.05906X0.10236*%
G04:AMPARAMS|DCode=20|XSize=43.31mil|YSize=65.35mil|CornerRadius=4.33mil|HoleSize=0mil|Usage=FLASHONLY|Rotation=90.000|XOffset=0mil|YOffset=0mil|HoleType=Round|Shape=RoundedRectangle|*
%AMROUNDEDRECTD20*
21,1,0.04331,0.05669,0,0,90.0*
21,1,0.03465,0.06535,0,0,90.0*
1,1,0.00866,0.02835,0.01732*
1,1,0.00866,0.02835,-0.01732*
1,1,0.00866,-0.02835,-0.01732*
1,1,0.00866,-0.02835,0.01732*
%
%ADD20ROUNDEDRECTD20*%
G04:AMPARAMS|DCode=21|XSize=47.64mil|YSize=71.65mil|CornerRadius=7.86mil|HoleSize=0mil|Usage=FLASHONLY|Rotation=180.000|XOffset=0mil|YOffset=0mil|HoleType=Round|Shape=RoundedRectangle|*
%AMROUNDEDRECTD21*
21,1,0.04764,0.05593,0,0,180.0*
21,1,0.03192,0.07165,0,0,180.0*
1,1,0.01572,-0.01596,0.02797*
1,1,0.01572,0.01596,0.02797*
1,1,0.01572,0.01596,-0.02797*
1,1,0.01572,-0.01596,-0.02797*
%
%ADD21ROUNDEDRECTD21*%
G04:AMPARAMS|DCode=22|XSize=19.68mil|YSize=35.43mil|CornerRadius=3.25mil|HoleSize=0mil|Usage=FLASHONLY|Rotation=180.000|XOffset=0mil|YOffset=0mil|HoleType=Round|Shape=RoundedRectangle|*
%AMROUNDEDRECTD22*
21,1,0.01968,0.02894,0,0,180.0*
21,1,0.01319,0.03543,0,0,180.0*
1,1,0.00650,-0.00659,0.01447*
1,1,0.00650,0.00659,0.01447*
1,1,0.00650,0.00659,-0.01447*
1,1,0.00650,-0.00659,-0.01447*
%
%ADD22ROUNDEDRECTD22*%
%ADD40C,0.03937*%
%ADD41C,0.03937*%
%ADD42C,0.01575*%
%ADD43C,0.06299*%
%ADD44C,0.08268*%
%ADD45C,0.08268*%
%ADD46R,0.06201X0.06201*%
%ADD47C,0.06201*%
%ADD48C,0.18898*%
%ADD49C,0.06791*%
%ADD50R,0.06791X0.06791*%
%ADD51C,0.16795*%
%ADD52C,0.12205*%
%ADD53C,0.05118*%
D10*
X122441Y144882D02*
X134961Y157402D01*
X122441Y74410D02*
Y144882D01*
Y74410D02*
X140157Y56693D01*
X134961Y157402D02*
X142874D01*
X134882Y175433D02*
X142874D01*
X80039Y99606D02*
Y120591D01*
X134882Y175433D01*
X129134Y89302D02*
Y144488D01*
X137539Y152894D01*
X152874D01*
X129134Y89302D02*
X147244Y71192D01*
X146322Y10236D02*
X147244Y11159D01*
X108070Y10236D02*
X146322D01*
X147244Y11159D02*
Y71192D01*
X140157Y24213D02*
Y56693D01*
X136811Y20866D02*
X140157Y24213D01*
X102480Y100000D02*
Y137638D01*
X135768Y170925D01*
X97441Y20865D02*
Y20866D01*
Y20865D02*
X108070Y10236D01*
X94488Y43307D02*
Y46850D01*
X89961Y38780D02*
X94488Y43307D01*
X82677Y38780D02*
X89961D01*
X51181Y40945D02*
X53543Y43307D01*
X56378D02*
X59921Y46850D01*
X51181Y38780D02*
Y40945D01*
X53543Y43307D02*
X56378D01*
X59921Y46850D02*
X61024D01*
Y89370D02*
X70473D01*
X61024Y58661D02*
Y89370D01*
X76479Y95377D02*
X77458D01*
X83465Y89370D01*
X70473Y89370D02*
X76479Y95377D01*
X83465Y89370D02*
X99213D01*
X68415Y92943D02*
X74291Y98819D01*
X65974Y92943D02*
X68415D01*
X65748Y92716D02*
X65974Y92943D01*
X75984Y76063D02*
Y88976D01*
Y76063D02*
X93386Y58661D01*
X94488D01*
X74291Y98819D02*
Y99606D01*
X90856Y93336D02*
X96732Y99213D01*
X89202Y93336D02*
X90856D01*
X88976Y93110D02*
X89202Y93336D01*
X96732Y99213D02*
Y100000D01*
X135768Y170925D02*
X152874D01*
X174370Y190197D02*
X182842Y181725D01*
X167054Y139678D02*
X182842Y155465D01*
Y181725D01*
X59055Y190197D02*
X174370D01*
X162874Y139370D02*
X163182Y139678D01*
X167054D01*
X29449Y190197D02*
X59055D01*
D17*
X25197Y250787D02*
D03*
X14173D02*
D03*
X171653Y232677D02*
D03*
X182677D02*
D03*
D18*
X75984Y88976D02*
D03*
X65748Y85236D02*
D03*
Y92716D02*
D03*
X99213Y89370D02*
D03*
X88976Y85630D02*
D03*
Y93110D02*
D03*
D19*
X70866Y38780D02*
D03*
X82677D02*
D03*
X39370D02*
D03*
X51181D02*
D03*
D20*
X94488Y46850D02*
D03*
Y58661D02*
D03*
X61024Y46850D02*
D03*
Y58661D02*
D03*
D21*
X171457Y248031D02*
D03*
X182874D02*
D03*
X13976Y261811D02*
D03*
X25394D02*
D03*
D22*
X80039Y99606D02*
D03*
X74291D02*
D03*
X102480Y100000D02*
D03*
X96732D02*
D03*
D40*
X23622Y70866D02*
D03*
X59055Y190197D02*
D03*
X75197Y176772D02*
D03*
X165354Y70866D02*
D03*
D41*
X5906Y261811D02*
X13976D01*
X14075Y250886D02*
Y261713D01*
Y250886D02*
X14173Y250787D01*
X13976Y261811D02*
X14075Y261713D01*
X25295Y250886D02*
Y261713D01*
X25197Y250787D02*
X25295Y250886D01*
Y261713D02*
X25394Y261811D01*
X25197Y234047D02*
Y250787D01*
X182776Y232776D02*
Y247933D01*
X182677Y232677D02*
X182776Y232776D01*
Y247933D02*
X182874Y248031D01*
X190945D01*
X155737Y215579D02*
X171260Y231102D01*
Y231398D01*
X171752Y231890D01*
X152874Y205571D02*
X155737Y208433D01*
Y215579D01*
X171752Y231890D02*
X172047D01*
X171457Y248031D02*
X171555Y247933D01*
Y232776D02*
Y247933D01*
Y232776D02*
X171653Y232677D01*
X190157Y144468D02*
Y183465D01*
X152874Y107185D02*
X190157Y144468D01*
X153051Y205394D02*
X168228D01*
X190157Y183465D01*
X152874Y205571D02*
X153051Y205394D01*
X9449Y116890D02*
X34449Y91890D01*
X9449Y198071D02*
X34449Y223071D01*
X9449Y116890D02*
Y198071D01*
X34449Y223071D02*
Y224795D01*
X25197Y234047D02*
X34449Y224795D01*
D42*
X165354Y70866D02*
X177559D01*
X88976Y77953D02*
Y85630D01*
X88976Y77953D02*
X88976Y77953D01*
X65748Y77953D02*
X65748Y77953D01*
Y85236D01*
X11417Y70866D02*
X23622D01*
X23622Y70866D01*
X32874Y38780D02*
X39370D01*
X24016Y47638D02*
X32874Y38780D01*
X24016Y47638D02*
Y59449D01*
X32283Y67716D01*
X50000D01*
X52362Y70079D01*
Y128209D01*
X39449Y141122D02*
X52362Y128209D01*
X67716Y28740D02*
X70866Y31890D01*
X39370Y36614D02*
X47244Y28740D01*
X67716D01*
X39370Y36614D02*
Y38780D01*
X70866Y31890D02*
Y38780D01*
X39449Y141122D02*
X75098Y176772D01*
X131102D01*
X138189Y183858D02*
X166535D01*
X131102Y176772D02*
X138189Y183858D01*
X166535D02*
X170079Y180315D01*
Y173622D02*
Y180315D01*
X162874Y166417D02*
X170079Y173622D01*
D43*
X136811Y20866D02*
D03*
X154528D02*
D03*
X97441D02*
D03*
X115158D02*
D03*
D44*
X159469Y30669D02*
D03*
X131870D02*
D03*
X120099D02*
D03*
X92500D02*
D03*
D45*
X45276Y22047D02*
D03*
Y55512D02*
D03*
X76772Y22047D02*
D03*
Y55512D02*
D03*
D46*
X142874Y139370D02*
D03*
D47*
Y148386D02*
D03*
Y157402D02*
D03*
Y166417D02*
D03*
Y175433D02*
D03*
X152874Y134862D02*
D03*
Y143878D02*
D03*
Y152894D02*
D03*
Y161909D02*
D03*
Y170925D02*
D03*
X162874Y139370D02*
D03*
Y148386D02*
D03*
Y157402D02*
D03*
Y166417D02*
D03*
Y175433D02*
D03*
D48*
X152874Y107185D02*
D03*
Y205571D02*
D03*
D49*
X29449Y190197D02*
D03*
Y179291D02*
D03*
Y168386D02*
D03*
Y157480D02*
D03*
Y146575D02*
D03*
Y135669D02*
D03*
Y124764D02*
D03*
X39449Y195650D02*
D03*
Y184744D02*
D03*
Y173839D02*
D03*
Y162933D02*
D03*
Y152027D02*
D03*
Y141122D02*
D03*
Y130217D02*
D03*
D50*
Y119311D02*
D03*
D51*
X34449Y223071D02*
D03*
Y91890D02*
D03*
D52*
X17717Y297244D02*
D03*
X179134D02*
D03*
Y17717D02*
D03*
X17717D02*
D03*
D53*
X177559Y70866D02*
D03*
X11417Y70866D02*
D03*
X88976Y77953D02*
D03*
X65748D02*
D03*
X5906Y261811D02*
D03*
X190945Y248031D02*
D03*
M02*
