G04*
G04 #@! TF.GenerationSoftware,Altium Limited,Altium Designer,24.4.1 (13)*
G04*
G04 Layer_Color=8388736*
%FSLAX25Y25*%
%MOIN*%
G70*
G04*
G04 #@! TF.SameCoordinates,DD3FF33E-3B50-40DC-AE4A-396B39D6A24E*
G04*
G04*
G04 #@! TF.FilePolarity,Negative*
G04*
G01*
G75*
%ADD19R,0.05906X0.10236*%
%ADD23R,0.05524X0.07296*%
%ADD24O,0.05131X0.03162*%
%ADD25C,0.04737*%
G04:AMPARAMS|DCode=26|XSize=51.31mil|YSize=73.35mil|CornerRadius=8.33mil|HoleSize=0mil|Usage=FLASHONLY|Rotation=90.000|XOffset=0mil|YOffset=0mil|HoleType=Round|Shape=RoundedRectangle|*
%AMROUNDEDRECTD26*
21,1,0.05131,0.05669,0,0,90.0*
21,1,0.03465,0.07335,0,0,90.0*
1,1,0.01666,0.02835,0.01732*
1,1,0.01666,0.02835,-0.01732*
1,1,0.01666,-0.02835,-0.01732*
1,1,0.01666,-0.02835,0.01732*
%
%ADD26ROUNDEDRECTD26*%
G04:AMPARAMS|DCode=27|XSize=55.64mil|YSize=79.65mil|CornerRadius=11.86mil|HoleSize=0mil|Usage=FLASHONLY|Rotation=180.000|XOffset=0mil|YOffset=0mil|HoleType=Round|Shape=RoundedRectangle|*
%AMROUNDEDRECTD27*
21,1,0.05564,0.05593,0,0,180.0*
21,1,0.03192,0.07965,0,0,180.0*
1,1,0.02372,-0.01596,0.02797*
1,1,0.02372,0.01596,0.02797*
1,1,0.02372,0.01596,-0.02797*
1,1,0.02372,-0.01596,-0.02797*
%
%ADD27ROUNDEDRECTD27*%
G04:AMPARAMS|DCode=28|XSize=27.69mil|YSize=43.43mil|CornerRadius=7.25mil|HoleSize=0mil|Usage=FLASHONLY|Rotation=180.000|XOffset=0mil|YOffset=0mil|HoleType=Round|Shape=RoundedRectangle|*
%AMROUNDEDRECTD28*
21,1,0.02769,0.02894,0,0,180.0*
21,1,0.01319,0.04343,0,0,180.0*
1,1,0.01450,-0.00659,0.01447*
1,1,0.01450,0.00659,0.01447*
1,1,0.01450,0.00659,-0.01447*
1,1,0.01450,-0.00659,-0.01447*
%
%ADD28ROUNDEDRECTD28*%
%ADD29C,0.07099*%
%ADD30C,0.09068*%
%ADD31C,0.09068*%
%ADD32R,0.07001X0.07001*%
%ADD33C,0.07001*%
%ADD34C,0.19698*%
%ADD35C,0.07591*%
%ADD36R,0.07591X0.07591*%
%ADD37C,0.17595*%
%ADD38C,0.13005*%
%ADD39C,0.05918*%
D19*
X70866Y38780D02*
D03*
X82677D02*
D03*
X39370D02*
D03*
X51181D02*
D03*
D23*
X25197Y250787D02*
D03*
X14173D02*
D03*
X171653Y232677D02*
D03*
X182677D02*
D03*
D24*
X75984Y88976D02*
D03*
X65748Y85236D02*
D03*
Y92716D02*
D03*
X99213Y89370D02*
D03*
X88976Y85630D02*
D03*
Y93110D02*
D03*
D25*
X23622Y70866D02*
D03*
X59055Y190197D02*
D03*
X75197Y176772D02*
D03*
X165354Y70866D02*
D03*
D26*
X94488Y46850D02*
D03*
Y58661D02*
D03*
X61024Y46850D02*
D03*
Y58661D02*
D03*
D27*
X171457Y248031D02*
D03*
X182874D02*
D03*
X13976Y261811D02*
D03*
X25394D02*
D03*
D28*
X80039Y99606D02*
D03*
X74291D02*
D03*
X102480Y100000D02*
D03*
X96732D02*
D03*
D29*
X136811Y20866D02*
D03*
X154528D02*
D03*
X97441D02*
D03*
X115158D02*
D03*
D30*
X159469Y30669D02*
D03*
X131870D02*
D03*
X120099D02*
D03*
X92500D02*
D03*
D31*
X45276Y22047D02*
D03*
Y55512D02*
D03*
X76772Y22047D02*
D03*
Y55512D02*
D03*
D32*
X142874Y139370D02*
D03*
D33*
Y148386D02*
D03*
Y157402D02*
D03*
Y166417D02*
D03*
Y175433D02*
D03*
X152874Y134862D02*
D03*
Y143878D02*
D03*
Y152894D02*
D03*
Y161909D02*
D03*
Y170925D02*
D03*
X162874Y139370D02*
D03*
Y148386D02*
D03*
Y157402D02*
D03*
Y166417D02*
D03*
Y175433D02*
D03*
D34*
X152874Y107185D02*
D03*
Y205571D02*
D03*
D35*
X29449Y190197D02*
D03*
Y179291D02*
D03*
Y168386D02*
D03*
Y157480D02*
D03*
Y146575D02*
D03*
Y135669D02*
D03*
Y124764D02*
D03*
X39449Y195650D02*
D03*
Y184744D02*
D03*
Y173839D02*
D03*
Y162933D02*
D03*
Y152027D02*
D03*
Y141122D02*
D03*
Y130217D02*
D03*
D36*
Y119311D02*
D03*
D37*
X34449Y223071D02*
D03*
Y91890D02*
D03*
D38*
X17717Y297244D02*
D03*
X179134D02*
D03*
Y17717D02*
D03*
X17717D02*
D03*
D39*
X177559Y70866D02*
D03*
X11417Y70866D02*
D03*
X88976Y77953D02*
D03*
X65748D02*
D03*
X5906Y261811D02*
D03*
X190945Y248031D02*
D03*
M02*
